<svg xmlns="http://www.w3.org/2000/svg" viewBox="0 0 500 500">
  <!-- Car body lower -->
  <path d="M60,280 L60,250 Q65,240 80,235 L420,235 Q435,240 440,250 L440,280" stroke="#333" stroke-width="2" fill="none"/>
  <!-- Car body upper / cabin -->
  <path d="M130,235 L150,175 Q155,165 170,160 L310,160 Q325,165 335,175 L370,235" stroke="#333" stroke-width="2" fill="none"/>
  <!-- Windshield -->
  <path d="M155,175 L170,175 Q175,175 175,180 L175,235" stroke="#333" stroke-width="2" fill="none"/>
  <!-- Rear window -->
  <path d="M330,175 L315,175 Q310,175 310,180 L310,235" stroke="#333" stroke-width="2" fill="none"/>
  <!-- Side windows divider -->
  <path d="M245,175 L245,235" stroke="#333" stroke-width="2" fill="none"/>
  <!-- Window top bar -->
  <path d="M155,175 L330,175" stroke="#333" stroke-width="2" fill="none"/>
  <!-- Front bumper -->
  <path d="M60,280 Q55,290 60,300 L100,300 Q105,290 100,280" stroke="#333" stroke-width="2" fill="none"/>
  <!-- Rear bumper -->
  <path d="M400,280 Q395,290 400,300 L440,300 Q445,290 440,280" stroke="#333" stroke-width="2" fill="none"/>
  <!-- Bottom line -->
  <path d="M100,300 L165,300 M275,300 L400,300" stroke="#333" stroke-width="2" fill="none"/>
  <!-- Front wheel -->
  <path d="M220,300 A42,42 0 1,1 220,299.99 Z" stroke="#333" stroke-width="2" fill="none"/>
  <!-- Front wheel hub -->
  <path d="M220,275 A17,17 0 1,1 220,274.99 Z" stroke="#333" stroke-width="2" fill="none"/>
  <!-- Rear wheel -->
  <path d="M340,300 A42,42 0 1,1 340,299.99 Z" stroke="#333" stroke-width="2" fill="none"/>
  <!-- Rear wheel hub -->
  <path d="M340,275 A17,17 0 1,1 340,274.99 Z" stroke="#333" stroke-width="2" fill="none"/>
  <!-- Headlight -->
  <path d="M65,250 L80,248 Q85,250 85,255 L85,262 Q85,267 80,268 L65,268" stroke="#333" stroke-width="2" fill="none"/>
  <!-- Tail light -->
  <path d="M435,250 L425,248 Q420,250 420,255 L420,262 Q420,267 425,268 L435,268" stroke="#333" stroke-width="2" fill="none"/>
  <!-- Door handle -->
  <path d="M225,210 L255,210" stroke="#333" stroke-width="2" fill="none"/>
</svg>
